LibreDotMatrix-Video.ufo
<glyph name="percent" format="2">
  <advance width="600"/>
  <unicode hex="0025"/>
  <outline>
    <contour>
      <point x="50" y="100" type="line"/>
      <point x="50" y="200" type="line"/>
      <point x="100" y="200" type="line"/>
      <point x="100" y="250" type="line"/>
      <point x="150" y="250" type="line"/>
      <point x="150" y="300" type="line"/>
      <point x="200" y="300" type="line"/>
      <point x="200" y="350" type="line"/>
      <point x="250" y="350" type="line"/>
      <point x="250" y="400" type="line"/>
      <point x="300" y="400" type="line"/>
      <point x="300" y="450" type="line"/>
      <point x="350" y="450" type="line"/>
      <point x="350" y="500" type="line"/>
      <point x="400" y="500" type="line"/>
      <point x="400" y="550" type="line"/>
      <point x="450" y="550" type="line"/>
      <point x="450" y="600" type="line"/>
      <point x="550" y="600" type="line"/>
      <point x="550" y="500" type="line"/>
      <point x="500" y="500" type="line"/>
      <point x="500" y="450" type="line"/>
      <point x="450" y="450" type="line"/>
      <point x="450" y="400" type="line"/>
      <point x="400" y="400" type="line"/>
      <point x="400" y="350" type="line"/>
      <point x="350" y="350" type="line"/>
      <point x="350" y="300" type="line"/>
      <point x="300" y="300" type="line"/>
      <point x="300" y="250" type="line"/>
      <point x="250" y="250" type="line"/>
      <point x="250" y="200" type="line"/>
      <point x="200" y="200" type="line"/>
      <point x="200" y="150" type="line"/>
      <point x="150" y="150" type="line"/>
      <point x="150" y="100" type="line"/>
    </contour>
    <contour>
      <point x="550" y="0" type="line"/>
      <point x="350" y="0" type="line"/>
      <point x="350" y="200" type="line"/>
      <point x="550" y="200" type="line"/>
    </contour>
    <contour>
      <point x="250" y="500" type="line"/>
      <point x="50" y="500" type="line"/>
      <point x="50" y="700" type="line"/>
      <point x="250" y="700" type="line"/>
    </contour>
  </outline>
</glyph>
<glyph name="parenright" format="2">
  <advance width="400"/>
  <unicode hex="0029"/>
  <outline>
    <contour>
      <point x="50" y="0" type="line"/>
      <point x="50" y="100" type="line"/>
      <point x="100" y="100" type="line"/>
      <point x="100" y="150" type="line"/>
      <point x="150" y="150" type="line"/>
      <point x="150" y="200" type="line"/>
      <point x="200" y="200" type="line"/>
      <point x="200" y="250" type="line"/>
      <point x="250" y="250" type="line"/>
      <point x="250" y="450" type="line"/>
      <point x="200" y="450" type="line"/>
      <point x="200" y="500" type="line"/>
      <point x="150" y="500" type="line"/>
      <point x="150" y="550" type="line"/>
      <point x="100" y="550" type="line"/>
      <point x="100" y="600" type="line"/>
      <point x="50" y="600" type="line"/>
      <point x="50" y="700" type="line"/>
      <point x="150" y="700" type="line"/>
      <point x="150" y="650" type="line"/>
      <point x="200" y="650" type="line"/>
      <point x="200" y="600" type="line"/>
      <point x="250" y="600" type="line"/>
      <point x="250" y="550" type="line"/>
      <point x="300" y="550" type="line"/>
      <point x="300" y="500" type="line"/>
      <point x="350" y="500" type="line"/>
      <point x="350" y="200" type="line"/>
      <point x="300" y="200" type="line"/>
      <point x="300" y="150" type="line"/>
      <point x="250" y="150" type="line"/>
      <point x="250" y="100" type="line"/>
      <point x="200" y="100" type="line"/>
      <point x="200" y="50" type="line"/>
      <point x="150" y="50" type="line"/>
      <point x="150" y="0" type="line"/>
    </contour>
  </outline>
</glyph>
<glyph name="hyphen" format="2">
  <advance width="500"/>
  <unicode hex="002D"/>
  <outline>
    <contour>
      <point x="50" y="300" type="line"/>
      <point x="50" y="400" type="line"/>
      <point x="450" y="400" type="line"/>
      <point x="450" y="300" type="line"/>
    </contour>
  </outline>
</glyph>
<glyph name="slash" format="2">
  <advance width="600"/>
  <unicode hex="002F"/>
  <outline>
    <contour>
      <point x="50" y="100" type="line"/>
      <point x="50" y="200" type="line"/>
      <point x="100" y="200" type="line"/>
      <point x="100" y="250" type="line"/>
      <point x="150" y="250" type="line"/>
      <point x="150" y="300" type="line"/>
      <point x="200" y="300" type="line"/>
      <point x="200" y="350" type="line"/>
      <point x="250" y="350" type="line"/>
      <point x="250" y="400" type="line"/>
      <point x="300" y="400" type="line"/>
      <point x="300" y="450" type="line"/>
      <point x="350" y="450" type="line"/>
      <point x="350" y="500" type="line"/>
      <point x="400" y="500" type="line"/>
      <point x="400" y="550" type="line"/>
      <point x="450" y="550" type="line"/>
      <point x="450" y="600" type="line"/>
      <point x="550" y="600" type="line"/>
      <point x="550" y="500" type="line"/>
      <point x="500" y="500" type="line"/>
      <point x="500" y="450" type="line"/>
      <point x="450" y="450" type="line"/>
      <point x="450" y="400" type="line"/>
      <point x="400" y="400" type="line"/>
      <point x="400" y="350" type="line"/>
      <point x="350" y="350" type="line"/>
      <point x="350" y="300" type="line"/>
      <point x="300" y="300" type="line"/>
      <point x="300" y="250" type="line"/>
      <point x="250" y="250" type="line"/>
      <point x="250" y="200" type="line"/>
      <point x="200" y="200" type="line"/>
      <point x="200" y="150" type="line"/>
      <point x="150" y="150" type="line"/>
      <point x="150" y="100" type="line"/>
    </contour>
  </outline>
</glyph>
<glyph name="five" format="2">
  <advance width="600"/>
  <unicode hex="0035"/>
  <outline>
    <contour>
      <point x="50.0" y="100.0" type="line"/>
      <point x="50.0" y="200.0" type="line"/>
      <point x="150.0" y="200.0" type="line"/>
      <point x="150.0" y="150.0" type="line"/>
      <point x="200.0" y="150.0" type="line"/>
      <point x="200.0" y="100.0" type="line"/>
      <point x="400.0" y="100.0" type="line"/>
      <point x="400.0" y="150.0" type="line"/>
      <point x="450.0" y="150.0" type="line"/>
      <point x="450.0" y="350.0" type="line"/>
      <point x="400.0" y="350.0" type="line"/>
      <point x="400.0" y="400.0" type="line"/>
      <point x="50.0" y="400.0" type="line"/>
      <point x="50.0" y="700.0" type="line"/>
      <point x="550.0" y="700.0" type="line"/>
      <point x="550.0" y="600.0" type="line"/>
      <point x="150.0" y="600.0" type="line"/>
      <point x="150.0" y="500.0" type="line"/>
      <point x="450.0" y="500.0" type="line"/>
      <point x="450.0" y="450.0" type="line"/>
      <point x="500.0" y="450.0" type="line"/>
      <point x="500.0" y="400.0" type="line"/>
      <point x="550.0" y="400.0" type="line"/>
      <point x="550.0" y="100.0" type="line"/>
      <point x="500.0" y="100.0" type="line"/>
      <point x="500.0" y="50.0" type="line"/>
      <point x="450.0" y="50.0" type="line"/>
      <point x="450.0" y="0.0" type="line"/>
      <point x="150.0" y="0.0" type="line"/>
      <point x="150.0" y="50.0" type="line"/>
      <point x="100.0" y="50.0" type="line"/>
      <point x="100.0" y="100.0" type="line"/>
    </contour>
  </outline>
</glyph>
<glyph name="semicolon" format="2">
  <advance width="300"/>
  <unicode hex="003B"/>
  <outline>
    <contour>
      <point x="50" y="-100" type="line"/>
      <point x="50" y="0" type="line"/>
      <point x="100" y="0" type="line"/>
      <point x="100" y="50" type="line"/>
      <point x="150" y="50" type="line"/>
      <point x="150" y="200" type="line"/>
      <point x="250" y="200" type="line"/>
      <point x="250" y="0" type="line"/>
      <point x="200" y="-0" type="line"/>
      <point x="200" y="-50" type="line"/>
      <point x="150" y="-50" type="line"/>
      <point x="150" y="-100" type="line"/>
    </contour>
    <contour>
      <point x="150" y="400" type="line"/>
      <point x="150" y="500" type="line"/>
      <point x="250" y="500" type="line"/>
      <point x="250" y="400" type="line"/>
    </contour>
  </outline>
</glyph>
<glyph name="greater" format="2">
  <advance width="400"/>
  <unicode hex="003E"/>
  <outline>
    <contour>
      <point x="50" y="100" type="line"/>
      <point x="50" y="200" type="line"/>
      <point x="100" y="200" type="line"/>
      <point x="100" y="250" type="line"/>
      <point x="150" y="250" type="line"/>
      <point x="150" y="300" type="line"/>
      <point x="200" y="300" type="line"/>
      <point x="200" y="400" type="line"/>
      <point x="150" y="400" type="line"/>
      <point x="150" y="450" type="line"/>
      <point x="100" y="450" type="line"/>
      <point x="100" y="500" type="line"/>
      <point x="50" y="500" type="line"/>
      <point x="50" y="600" type="line"/>
      <point x="150" y="600" type="line"/>
      <point x="150" y="550" type="line"/>
      <point x="200" y="550" type="line"/>
      <point x="200" y="500" type="line"/>
      <point x="250" y="500" type="line"/>
      <point x="250" y="450" type="line"/>
      <point x="300" y="450" type="line"/>
      <point x="300" y="400" type="line"/>
      <point x="350" y="400" type="line"/>
      <point x="350" y="300" type="line"/>
      <point x="300" y="300" type="line"/>
      <point x="300" y="250" type="line"/>
      <point x="250" y="250" type="line"/>
      <point x="250" y="200" type="line"/>
      <point x="200" y="200" type="line"/>
      <point x="200" y="150" type="line"/>
      <point x="150" y="150" type="line"/>
      <point x="150" y="100" type="line"/>
    </contour>
  </outline>
</glyph>
<glyph name="l" format="2">
  <advance width="400"/>
  <unicode hex="006C"/>
  <anchor x="250" y="450" name="marks_aboveright"/>
  <anchor x="200" y="0" name="marks_below"/>
  <anchor x="200" y="0" name="ogonek"/>
  <anchor x="200" y="800" name="marks_above"/>
  <outline>
    <contour>
      <point x="50" y="0" type="line"/>
      <point x="50" y="100" type="line"/>
      <point x="150" y="100" type="line"/>
      <point x="150" y="600" type="line"/>
      <point x="50" y="600" type="line"/>
      <point x="50" y="700" type="line"/>
      <point x="250" y="700" type="line"/>
      <point x="250" y="100" type="line"/>
      <point x="350" y="100" type="line"/>
      <point x="350" y="0" type="line"/>
    </contour>
  </outline>
</glyph>
<glyph name="uni00B2" format="2">
  <advance width="400"/>
  <unicode hex="00B2"/>
  <outline>
    <contour>
      <point x="50" y="600" type="line"/>
      <point x="50" y="700" type="line"/>
      <point x="250" y="700" type="line"/>
      <point x="250" y="650" type="line"/>
      <point x="300" y="650" type="line"/>
      <point x="300" y="600" type="line"/>
      <point x="350" y="600" type="line"/>
      <point x="350" y="500" type="line"/>
      <point x="300" y="500" type="line"/>
      <point x="300" y="450" type="line"/>
      <point x="250" y="450" type="line"/>
      <point x="250" y="400" type="line"/>
      <point x="200" y="400" type="line"/>
      <point x="200" y="350" type="line"/>
      <point x="150" y="350" type="line"/>
      <point x="150" y="300" type="line"/>
      <point x="350" y="300" type="line"/>
      <point x="350" y="200" type="line"/>
      <point x="50" y="200" type="line"/>
      <point x="50" y="400" type="line"/>
      <point x="100" y="400" type="line"/>
      <point x="100" y="450" type="line"/>
      <point x="150" y="450" type="line"/>
      <point x="150" y="500" type="line"/>
      <point x="200" y="500" type="line"/>
      <point x="200" y="600" type="line"/>
    </contour>
  </outline>
</glyph>
<glyph name="periodcentered" format="2">
  <advance width="200"/>
  <unicode hex="00B7"/>
  <outline>
    <contour>
      <point x="50" y="300" type="line"/>
      <point x="50" y="400" type="line"/>
      <point x="150" y="400" type="line"/>
      <point x="150" y="300" type="line"/>
    </contour>
  </outline>
</glyph>
<glyph name="uni00B9" format="2">
  <advance width="400"/>
  <unicode hex="00B9"/>
  <outline>
    <contour>
      <point x="50.0" y="200.0" type="line"/>
      <point x="50.0" y="300.0" type="line"/>
      <point x="150.0" y="300.0" type="line"/>
      <point x="150.0" y="500.0" type="line"/>
      <point x="50.0" y="500.0" type="line"/>
      <point x="50.0" y="600.0" type="line"/>
      <point x="150.0" y="600.0" type="line"/>
      <point x="150.0" y="700.0" type="line"/>
      <point x="250.0" y="700.0" type="line"/>
      <point x="250.0" y="300.0" type="line"/>
      <point x="350.0" y="300.0" type="line"/>
      <point x="350.0" y="200.0" type="line"/>
    </contour>
  </outline>
</glyph>
<glyph name="AE" format="2">
  <advance width="600"/>
  <unicode hex="00C6"/>
  <anchor x="300" y="0" name="marks_below"/>
  <anchor x="300" y="800" name="marks_above"/>
  <outline>
    <contour>
      <point x="550" y="0" type="line"/>
      <point x="250" y="0" type="line"/>
      <point x="250" y="200" type="line"/>
      <point x="150" y="200" type="line"/>
      <point x="150" y="0" type="line"/>
      <point x="50" y="0" type="line"/>
      <point x="50" y="500" type="line"/>
      <point x="100" y="500" type="line"/>
      <point x="100" y="550" type="line"/>
      <point x="150" y="550" type="line"/>
      <point x="150" y="600" type="line"/>
      <point x="200" y="600" type="line"/>
      <point x="200" y="650" type="line"/>
      <point x="250" y="650" type="line"/>
      <point x="250" y="700" type="line"/>
      <point x="550" y="700" type="line"/>
      <point x="550" y="600" type="line"/>
      <point x="350" y="600" type="line"/>
      <point x="350" y="400" type="line"/>
      <point x="550" y="400" type="line"/>
      <point x="550" y="300" type="line"/>
      <point x="350" y="300" type="line"/>
      <point x="350" y="100" type="line"/>
      <point x="550" y="100" type="line"/>
    </contour>
    <contour>
      <point x="250" y="300" type="line"/>
      <point x="250" y="500" type="line"/>
      <point x="200" y="500" type="line"/>
      <point x="200" y="450" type="line"/>
      <point x="150" y="450" type="line"/>
      <point x="150" y="300" type="line"/>
    </contour>
  </outline>
</glyph>
<glyph name="germandbls" format="2">
  <advance width="600"/>
  <unicode hex="00DF"/>
  <anchor x="300" y="0" name="marks_below"/>
  <anchor x="300" y="800" name="marks_above"/>
  <outline>
    <contour>
      <point x="250" y="0" type="line"/>
      <point x="250" y="100" type="line"/>
      <point x="400" y="100" type="line"/>
      <point x="400" y="150" type="line"/>
      <point x="450" y="150" type="line"/>
      <point x="450" y="250" type="line"/>
      <point x="400" y="250" type="line"/>
      <point x="400" y="300" type="line"/>
      <point x="250" y="300" type="line"/>
      <point x="250" y="400" type="line"/>
      <point x="350" y="400" type="line"/>
      <point x="350" y="550" type="line"/>
      <point x="300" y="550" type="line"/>
      <point x="300" y="600" type="line"/>
      <point x="200" y="600" type="line"/>
      <point x="200" y="550" type="line"/>
      <point x="150" y="550" type="line"/>
      <point x="150" y="0" type="line"/>
      <point x="50" y="0" type="line"/>
      <point x="50" y="600" type="line"/>
      <point x="100" y="600" type="line"/>
      <point x="100" y="650" type="line"/>
      <point x="150" y="650" type="line"/>
      <point x="150" y="700" type="line"/>
      <point x="350" y="700" type="line"/>
      <point x="350" y="650" type="line"/>
      <point x="400" y="650" type="line"/>
      <point x="400" y="600" type="line"/>
      <point x="450" y="600" type="line"/>
      <point x="450" y="350" type="line"/>
      <point x="500" y="350" type="line"/>
      <point x="500" y="300" type="line"/>
      <point x="550" y="300" type="line"/>
      <point x="550" y="100" type="line"/>
      <point x="500" y="100" type="line"/>
      <point x="500" y="50" type="line"/>
      <point x="450" y="50" type="line"/>
      <point x="450" y="0" type="line"/>
    </contour>
  </outline>
</glyph>
<glyph name="eth" format="2">
  <advance width="600"/>
  <unicode hex="00F0"/>
  <anchor x="300" y="0" name="marks_below"/>
  <anchor x="300" y="800" name="marks_above"/>
  <outline>
    <contour>
      <point x="50" y="100" type="line"/>
      <point x="50" y="200" type="line"/>
      <point x="100" y="200" type="line"/>
      <point x="100" y="250" type="line"/>
      <point x="150" y="250" type="line"/>
      <point x="150" y="300" type="line"/>
      <point x="450" y="300" type="line"/>
      <point x="450" y="450" type="line"/>
      <point x="350" y="450" type="line"/>
      <point x="350" y="400" type="line"/>
      <point x="250" y="400" type="line"/>
      <point x="250" y="500" type="line"/>
      <point x="300" y="500" type="line"/>
      <point x="300" y="600" type="line"/>
      <point x="150" y="600" type="line"/>
      <point x="150" y="700" type="line"/>
      <point x="350" y="700" type="line"/>
      <point x="350" y="650" type="line"/>
      <point x="450" y="650" type="line"/>
      <point x="450" y="700" type="line"/>
      <point x="550" y="700" type="line"/>
      <point x="550" y="600" type="line"/>
      <point x="500" y="600" type="line"/>
      <point x="500" y="500" type="line"/>
      <point x="550" y="500" type="line"/>
      <point x="550" y="100" type="line"/>
      <point x="500" y="100" type="line"/>
      <point x="500" y="50" type="line"/>
      <point x="450" y="50" type="line"/>
      <point x="450" y="0" type="line"/>
      <point x="150" y="0" type="line"/>
      <point x="150" y="50" type="line"/>
      <point x="100" y="50" type="line"/>
      <point x="100" y="100" type="line"/>
    </contour>
    <contour>
      <point x="200" y="100" type="line"/>
      <point x="400" y="100" type="line"/>
      <point x="400" y="150" type="line"/>
      <point x="450" y="150" type="line"/>
      <point x="450" y="200" type="line"/>
      <point x="200" y="200" type="line"/>
    </contour>
  </outline>
</glyph>
<glyph name="Eogonek" format="2">
  <advance width="600"/>
  <unicode hex="0118"/>
  <outline>
    <contour>
      <point x="550" y="-200" type="line"/>
      <point x="350" y="-200" type="line"/>
      <point x="350" y="0" type="line"/>
      <point x="50" y="0" type="line"/>
      <point x="50" y="700" type="line"/>
      <point x="550" y="700" type="line"/>
      <point x="550" y="600" type="line"/>
      <point x="150" y="600" type="line"/>
      <point x="150" y="400" type="line"/>
      <point x="450" y="400" type="line"/>
      <point x="450" y="300" type="line"/>
      <point x="150" y="300" type="line"/>
      <point x="150" y="100" type="line"/>
      <point x="550" y="100" type="line"/>
      <point x="550" y="0" type="line"/>
      <point x="450" y="0" type="line"/>
      <point x="450" y="-100" type="line"/>
      <point x="550" y="-100" type="line"/>
    </contour>
  </outline>
</glyph>
<glyph name="uni013B" format="2">
  <advance width="600"/>
  <unicode hex="013B"/>
  <outline>
    <contour>
      <point x="150" y="-200" type="line"/>
      <point x="150" y="-100" type="line"/>
      <point x="200" y="-100" type="line"/>
      <point x="200" y="-50" type="line"/>
      <point x="250" y="-50" type="line"/>
      <point x="250" y="0" type="line"/>
      <point x="50" y="0" type="line"/>
      <point x="50" y="700" type="line"/>
      <point x="150" y="700" type="line"/>
      <point x="150" y="100" type="line"/>
      <point x="550" y="100" type="line"/>
      <point x="550" y="0" type="line"/>
      <point x="520" y="0"/>
      <point x="480" y="0"/>
      <point x="450" y="0" type="curve" smooth="yes"/>
      <point x="350" y="0" type="line"/>
      <point x="350" y="-100" type="line"/>
      <point x="300" y="-100" type="line"/>
      <point x="300" y="-150" type="line"/>
      <point x="250" y="-150" type="line"/>
      <point x="250" y="-200" type="line"/>
    </contour>
  </outline>
</glyph>
<glyph name="Lslash" format="2">
  <advance width="600"/>
  <unicode hex="0141"/>
  <anchor x="300" y="0" name="marks_below"/>
  <anchor x="300" y="800" name="marks_above"/>
  <outline>
    <contour>
      <point x="50" y="200" type="line"/>
      <point x="50" y="300" type="line"/>
      <point x="150" y="300" type="line"/>
      <point x="150" y="700" type="line"/>
      <point x="250" y="700" type="line"/>
      <point x="250" y="500" type="line"/>
      <point x="300" y="500" type="line"/>
      <point x="300" y="550" type="line"/>
      <point x="350" y="550" type="line"/>
      <point x="350" y="600" type="line"/>
      <point x="450" y="600" type="line"/>
      <point x="450" y="500" type="line"/>
      <point x="400" y="500" type="line"/>
      <point x="400" y="450" type="line"/>
      <point x="350" y="450" type="line"/>
      <point x="350" y="400" type="line"/>
      <point x="300" y="400" type="line"/>
      <point x="300" y="350" type="line"/>
      <point x="250" y="350" type="line"/>
      <point x="250" y="100" type="line"/>
      <point x="550" y="100" type="line"/>
      <point x="550" y="0" type="line"/>
      <point x="150" y="0" type="line"/>
      <point x="150" y="200" type="line"/>
    </contour>
  </outline>
</glyph>
<glyph name="lslash" format="2">
  <advance width="400"/>
  <unicode hex="0142"/>
  <anchor x="200" y="0" name="marks_below"/>
  <anchor x="200" y="0" name="ogonek"/>
  <anchor x="200" y="800" name="marks_above"/>
  <outline>
    <contour>
      <point x="50" y="0" type="line"/>
      <point x="50" y="100" type="line"/>
      <point x="150" y="100" type="line"/>
      <point x="150" y="200" type="line"/>
      <point x="50" y="200" type="line"/>
      <point x="50" y="300" type="line"/>
      <point x="150" y="300" type="line"/>
      <point x="150" y="600" type="line"/>
      <point x="50" y="600" type="line"/>
      <point x="50" y="700" type="line"/>
      <point x="250" y="700" type="line"/>
      <point x="250" y="500" type="line"/>
      <point x="350" y="500" type="line"/>
      <point x="350" y="400" type="line"/>
      <point x="250" y="400" type="line"/>
      <point x="250" y="100" type="line"/>
      <point x="350" y="100" type="line"/>
      <point x="350" y="0" type="line"/>
    </contour>
  </outline>
</glyph>
<glyph name="eng" format="2">
  <advance width="600"/>
  <unicode hex="014B"/>
  <anchor x="300" y="600" name="marks_above"/>
  <outline>
    <contour>
      <point x="250" y="-200" type="line"/>
      <point x="250" y="-100" type="line"/>
      <point x="400" y="-100" type="line"/>
      <point x="400" y="-50" type="line"/>
      <point x="450" y="-50" type="line"/>
      <point x="450" y="350" type="line"/>
      <point x="400" y="350" type="line"/>
      <point x="400" y="400" type="line"/>
      <point x="300" y="400" type="line"/>
      <point x="300" y="350" type="line"/>
      <point x="250" y="350" type="line"/>
      <point x="250" y="300" type="line"/>
      <point x="150" y="300" type="line"/>
      <point x="150" y="0" type="line"/>
      <point x="50" y="0" type="line"/>
      <point x="50" y="500" type="line"/>
      <point x="150" y="500" type="line"/>
      <point x="150" y="400" type="line"/>
      <point x="200" y="400" type="line"/>
      <point x="200" y="450" type="line"/>
      <point x="250" y="450" type="line"/>
      <point x="250" y="500" type="line"/>
      <point x="450" y="500" type="line"/>
      <point x="450" y="450" type="line"/>
      <point x="500" y="450" type="line"/>
      <point x="500" y="400" type="line"/>
      <point x="550" y="400" type="line"/>
      <point x="550" y="-100" type="line"/>
      <point x="500" y="-100" type="line"/>
      <point x="500" y="-150" type="line"/>
      <point x="450" y="-150" type="line"/>
      <point x="450" y="-200" type="line"/>
    </contour>
  </outline>
</glyph>
<glyph name="oe" format="2">
  <advance width="600"/>
  <unicode hex="0153"/>
  <anchor x="300" y="0" name="marks_below"/>
  <anchor x="300" y="600" name="marks_above"/>
  <outline>
    <contour>
      <point x="550" y="0" type="line"/>
      <point x="350" y="0" type="line"/>
      <point x="350" y="50" type="line"/>
      <point x="250" y="50" type="line"/>
      <point x="250" y="0" type="line"/>
      <point x="150" y="0" type="line"/>
      <point x="150" y="50" type="line"/>
      <point x="100" y="50" type="line"/>
      <point x="100" y="100" type="line"/>
      <point x="50" y="100" type="line"/>
      <point x="50" y="400" type="line"/>
      <point x="100" y="400" type="line"/>
      <point x="100" y="450" type="line"/>
      <point x="150" y="450" type="line"/>
      <point x="150" y="500" type="line"/>
      <point x="250" y="500" type="line"/>
      <point x="250" y="450" type="line"/>
      <point x="350" y="450" type="line"/>
      <point x="350" y="500" type="line"/>
      <point x="450" y="500" type="line"/>
      <point x="450" y="450" type="line"/>
      <point x="500" y="450" type="line"/>
      <point x="500" y="400" type="line"/>
      <point x="550" y="400" type="line"/>
      <point x="550" y="200" type="line"/>
      <point x="350" y="200" type="line"/>
      <point x="350" y="150" type="line"/>
      <point x="400" y="150" type="line"/>
      <point x="400" y="100" type="line"/>
      <point x="550" y="100" type="line"/>
    </contour>
    <contour>
      <point x="250" y="150" type="line"/>
      <point x="250" y="350" type="line"/>
      <point x="150" y="350" type="line"/>
      <point x="150" y="150" type="line"/>
    </contour>
    <contour>
      <point x="450" y="300" type="line"/>
      <point x="450" y="350" type="line"/>
      <point x="350" y="350" type="line"/>
      <point x="350" y="300" type="line"/>
    </contour>
  </outline>
</glyph>
<glyph name="scedilla" format="2">
  <advance width="600"/>
  <unicode hex="015F"/>
  <outline>
    <contour>
      <point x="150" y="-200" type="line"/>
      <point x="150" y="-100" type="line"/>
      <point x="250" y="-100" type="line"/>
      <point x="250" y="0" type="line"/>
      <point x="50" y="0" type="line"/>
      <point x="50" y="100" type="line"/>
      <point x="400" y="100" type="line"/>
      <point x="400" y="200" type="line"/>
      <point x="150" y="200" type="line"/>
      <point x="150" y="250" type="line"/>
      <point x="100" y="250" type="line"/>
      <point x="100" y="300" type="line"/>
      <point x="50" y="300" type="line"/>
      <point x="50" y="400" type="line"/>
      <point x="100" y="400" type="line"/>
      <point x="100" y="450" type="line"/>
      <point x="150" y="450" type="line"/>
      <point x="150" y="500" type="line"/>
      <point x="550" y="500" type="line"/>
      <point x="550" y="400" type="line"/>
      <point x="200" y="400" type="line"/>
      <point x="200" y="300" type="line"/>
      <point x="450" y="300" type="line"/>
      <point x="450" y="250" type="line"/>
      <point x="500" y="250" type="line"/>
      <point x="500" y="200" type="line"/>
      <point x="550" y="200" type="line"/>
      <point x="550" y="100" type="line"/>
      <point x="500" y="100" type="line"/>
      <point x="500" y="50" type="line"/>
      <point x="450" y="50" type="line"/>
      <point x="450" y="0" type="line"/>
      <point x="350" y="0" type="line"/>
      <point x="350" y="-200" type="line"/>
    </contour>
  </outline>
</glyph>
<glyph name="florin" format="2">
  <advance width="700"/>
  <unicode hex="0192"/>
  <outline>
    <contour>
      <point x="50" y="-200" type="line"/>
      <point x="50" y="-100" type="line"/>
      <point x="200" y="-100" type="line"/>
      <point x="200" y="-50" type="line"/>
      <point x="250" y="-50" type="line"/>
      <point x="250" y="300" type="line"/>
      <point x="150" y="300" type="line"/>
      <point x="150" y="400" type="line"/>
      <point x="250" y="400" type="line"/>
      <point x="250" y="600" type="line"/>
      <point x="300" y="600" type="line"/>
      <point x="300" y="650" type="line"/>
      <point x="350" y="650" type="line"/>
      <point x="350" y="700" type="line"/>
      <point x="550" y="700" type="line"/>
      <point x="550" y="650" type="line"/>
      <point x="600" y="650" type="line"/>
      <point x="600" y="600" type="line"/>
      <point x="650" y="600" type="line"/>
      <point x="650" y="500" type="line"/>
      <point x="550" y="500" type="line"/>
      <point x="550" y="550" type="line"/>
      <point x="500" y="550" type="line"/>
      <point x="500" y="600" type="line"/>
      <point x="400" y="600" type="line"/>
      <point x="400" y="550" type="line"/>
      <point x="350" y="550" type="line"/>
      <point x="350" y="400" type="line"/>
      <point x="550" y="400" type="line"/>
      <point x="550" y="300" type="line"/>
      <point x="350" y="300" type="line"/>
      <point x="350" y="-100" type="line"/>
      <point x="300" y="-100" type="line"/>
      <point x="300" y="-150" type="line"/>
      <point x="250" y="-150" type="line"/>
      <point x="250" y="-200" type="line"/>
    </contour>
  </outline>
</glyph>
<glyph name="uni0328" format="2">
  <advance width="0"/>
  <unicode hex="0328"/>
  <anchor x="0" y="0" name="_ogonek"/>
  <outline>
    <contour>
      <point x="-50" y="-200" type="line"/>
      <point x="-50" y="0" type="line"/>
      <point x="50" y="0" type="line"/>
      <point x="50" y="-100" type="line"/>
      <point x="150" y="-100" type="line"/>
      <point x="150" y="-200" type="line"/>
    </contour>
  </outline>
</glyph>
<glyph name="quoteleft" format="2">
  <advance width="300"/>
  <unicode hex="2018"/>
  <outline>
    <contour>
      <point x="50.0" y="400.0" type="line"/>
      <point x="50.0" y="600.0" type="line"/>
      <point x="100.0" y="600.0" type="line"/>
      <point x="100.0" y="650.0" type="line"/>
      <point x="150.0" y="650.0" type="line"/>
      <point x="150.0" y="700.0" type="line"/>
      <point x="250.0" y="700.0" type="line"/>
      <point x="250.0" y="600.0" type="line"/>
      <point x="200.0" y="600.0" type="line"/>
      <point x="200.0" y="550.0" type="line"/>
      <point x="150.0" y="550.0" type="line"/>
      <point x="150.0" y="400.0" type="line"/>
    </contour>
  </outline>
</glyph>
<glyph name="uni2074" format="2">
  <advance width="400"/>
  <unicode hex="2074"/>
  <outline>
    <contour>
      <point x="350.0" y="700.0" type="line"/>
      <point x="350.0" y="200.0" type="line"/>
      <point x="250.0" y="200.0" type="line"/>
      <point x="250.0" y="300.0" type="line"/>
      <point x="50.0" y="300.0" type="line"/>
      <point x="50.0" y="500.0" type="line"/>
      <point x="100.0" y="500.0" type="line"/>
      <point x="100.0" y="550.0" type="line"/>
      <point x="150.0" y="550.0" type="line"/>
      <point x="150.0" y="600.0" type="line"/>
      <point x="200.0" y="600.0" type="line"/>
      <point x="200.0" y="650.0" type="line"/>
      <point x="250.0" y="650.0" type="line"/>
      <point x="250.0" y="700.0" type="line"/>
    </contour>
    <contour>
      <point x="250.0" y="400.0" type="line"/>
      <point x="250.0" y="500.0" type="line"/>
      <point x="200.0" y="500.0" type="line"/>
      <point x="200.0" y="450.0" type="line"/>
      <point x="150.0" y="450.0" type="line"/>
      <point x="150.0" y="400.0" type="line"/>
    </contour>
  </outline>
</glyph>
<glyph name="trademark" format="2">
  <advance width="600"/>
  <unicode hex="2122"/>
  <outline>
    <contour>
      <point x="50" y="600" type="line"/>
      <point x="50" y="700" type="line"/>
      <point x="550" y="700" type="line"/>
      <point x="550" y="600" type="line"/>
      <point x="350" y="600" type="line"/>
      <point x="350" y="400" type="line"/>
      <point x="250" y="400" type="line"/>
      <point x="250" y="600" type="line"/>
    </contour>
    <contour>
      <point x="450" y="0" type="line"/>
      <point x="450" y="200" type="line"/>
      <point x="400" y="200" type="line"/>
      <point x="400" y="150" type="line"/>
      <point x="350" y="150" type="line"/>
      <point x="350" y="100" type="line"/>
      <point x="250" y="100" type="line"/>
      <point x="250" y="150" type="line"/>
      <point x="200" y="150" type="line"/>
      <point x="200" y="200" type="line"/>
      <point x="150" y="200" type="line"/>
      <point x="150" y="0" type="line"/>
      <point x="50" y="0" type="line"/>
      <point x="50" y="300" type="line"/>
      <point x="250" y="300" type="line"/>
      <point x="250" y="250" type="line"/>
      <point x="350" y="250" type="line"/>
      <point x="350" y="300" type="line"/>
      <point x="550" y="300" type="line"/>
      <point x="550" y="0" type="line"/>
    </contour>
  </outline>
</glyph>
<glyph name="partialdiff" format="2">
  <advance width="600"/>
  <unicode hex="2202"/>
  <outline>
    <contour>
      <point x="150" y="600" type="line"/>
      <point x="150" y="700" type="line"/>
      <point x="350" y="700" type="line"/>
      <point x="350" y="650" type="line"/>
      <point x="400" y="650" type="line"/>
      <point x="400" y="600" type="line"/>
      <point x="450" y="600" type="line"/>
      <point x="450" y="550" type="line"/>
      <point x="500" y="550" type="line"/>
      <point x="500" y="500" type="line"/>
      <point x="550" y="500" type="line"/>
      <point x="550" y="100" type="line"/>
      <point x="500" y="100" type="line"/>
      <point x="500" y="50" type="line"/>
      <point x="450" y="50" type="line"/>
      <point x="450" y="0" type="line"/>
      <point x="150" y="0" type="line"/>
      <point x="150" y="50" type="line"/>
      <point x="100" y="50" type="line"/>
      <point x="100" y="100" type="line"/>
      <point x="50" y="100" type="line"/>
      <point x="50" y="300" type="line"/>
      <point x="100" y="300" type="line"/>
      <point x="100" y="350" type="line"/>
      <point x="150" y="350" type="line"/>
      <point x="150" y="400" type="line"/>
      <point x="450" y="400" type="line"/>
      <point x="450" y="450" type="line"/>
      <point x="400" y="450" type="line"/>
      <point x="400" y="500" type="line"/>
      <point x="350" y="500" type="line"/>
      <point x="350" y="550" type="line"/>
      <point x="300" y="550" type="line"/>
      <point x="300" y="600" type="line"/>
    </contour>
    <contour>
      <point x="200" y="100" type="line"/>
      <point x="400" y="100" type="line"/>
      <point x="400" y="150" type="line"/>
      <point x="450" y="150" type="line"/>
      <point x="450" y="300" type="line"/>
      <point x="200" y="300" type="line"/>
      <point x="200" y="250" type="line"/>
      <point x="150" y="250" type="line"/>
      <point x="150" y="150" type="line"/>
      <point x="200" y="150" type="line"/>
    </contour>
  </outline>
</glyph>
<glyph name="product" format="2">
  <advance width="600"/>
  <unicode hex="220F"/>
  <outline>
    <contour>
      <point x="450" y="-200" type="line"/>
      <point x="450" y="600" type="line"/>
      <point x="150" y="600" type="line"/>
      <point x="150" y="-200" type="line"/>
      <point x="50" y="-200" type="line"/>
      <point x="50" y="700" type="line"/>
      <point x="550" y="700" type="line"/>
      <point x="550" y="-200" type="line"/>
    </contour>
  </outline>
</glyph>
<glyph name=".notdef" format="2">
  <advance width="601"/>
  <outline>
    <contour>
      <point x="130" y="70" type="line"/>
      <point x="470" y="70" type="line"/>
      <point x="470" y="630" type="line"/>
      <point x="130" y="630" type="line"/>
    </contour>
    <contour>
      <point x="550" y="0" type="line"/>
      <point x="50" y="0" type="line"/>
      <point x="50" y="700" type="line"/>
      <point x="550" y="700" type="line"/>
    </contour>
  </outline>
</glyph>
